<svg height="512pt" viewBox="-24 0 512 512.128" width="512pt" xmlns="http://www.w3.org/2000/svg"><path d="m200.0625 288h-192c-4.421875 0-8-3.574219-8-8v-272c0-4.425781 3.578125-8 8-8h151.992188c2.128906 0 4.160156.839844 5.65625 2.34375l40.007812 40c1.503906 1.503906 2.34375 3.527344 2.34375 5.65625v232c0 4.425781-3.574219 8-8 8zm-184-16h176v-220.6875l-35.320312-35.3125h-140.679688zm0 0"/><path d="m200.0625 56h-40c-4.421875 0-8-3.574219-8-8s3.578125-8 8-8h40c4.425781 0 8 3.574219 8 8s-3.574219 8-8 8zm0 0"/><path d="m160.0625 56c-4.421875 0-8-3.574219-8-8v-40c0-4.425781 3.578125-8 8-8 4.425781 0 8 3.574219 8 8v40c0 4.425781-3.574219 8-8 8zm0 0"/><path d="m456.167969 464.128906h-143.953125c-4.421875 0-8-3.578125-8-8v-223.953125c0-4.414062 3.578125-8 8-8l143.953125-.046875c2.128906 0 4.160156.839844 5.65625 2.34375 1.496093 1.503906 2.34375 3.527344 2.34375 5.65625v224c0 4.421875-3.574219 8-8 8zm-135.953125-16h127.953125v-208l-127.953125.046875zm0 0"/><path d="m104.0625 416c-4.421875 0-8-3.574219-8-8v-96c0-4.425781 3.578125-8 8-8 4.425781 0 8 3.574219 8 8v96c0 4.425781-3.574219 8-8 8zm0 0"/><path d="m280.0625 416h-176c-4.421875 0-8-3.574219-8-8s3.578125-8 8-8h176c4.425781 0 8 3.574219 8 8s-3.574219 8-8 8zm0 0"/><path d="m256.0625 440c-2.046875 0-4.09375-.785156-5.65625-2.34375-3.125-3.128906-3.125-8.183594 0-11.3125l24-24c3.128906-3.128906 8.1875-3.128906 11.3125 0 3.128906 3.128906 3.128906 8.183594 0 11.3125l-24 24c-1.558594 1.566406-3.605469 2.34375-5.65625 2.34375zm0 0"/><path d="m280.0625 416c-2.046875 0-4.09375-.785156-5.65625-2.34375l-24-24c-3.125-3.128906-3.125-8.183594 0-11.3125 3.128906-3.128906 8.1875-3.128906 11.3125 0l24 24c3.128906 3.128906 3.128906 8.183594 0 11.3125-1.558594 1.566406-3.605469 2.34375-5.65625 2.34375zm0 0"/><path d="m384.039062 208c-4.421874 0-8-3.574219-8-8v-96c0-4.425781 3.578126-8 8-8 4.425782 0 8 3.574219 8 8v96c0 4.425781-3.574218 8-8 8zm0 0"/><path d="m384.039062 112h-151.976562c-4.421875 0-8-3.574219-8-8s3.578125-8 8-8h151.976562c4.425782 0 8 3.574219 8 8s-3.574218 8-8 8zm0 0"/><path d="m232.0625 112c-2.046875 0-4.09375-.785156-5.65625-2.34375-3.125-3.128906-3.125-8.183594 0-11.3125l24-24c3.128906-3.128906 8.1875-3.128906 11.3125 0 3.128906 3.128906 3.128906 8.183594 0 11.3125l-24 24c-1.558594 1.566406-3.605469 2.34375-5.65625 2.34375zm0 0"/><path d="m256.0625 136c-2.046875 0-4.09375-.785156-5.65625-2.34375l-24-24c-3.125-3.128906-3.125-8.183594 0-11.3125 3.128906-3.128906 8.1875-3.128906 11.3125 0l24 24c3.128906 3.128906 3.128906 8.183594 0 11.3125-1.558594 1.566406-3.605469 2.34375-5.65625 2.34375zm0 0"/><path d="m456.128906 488.128906h-144c-4.425781 0-8-3.578125-8-8v-24c0-4.425781 3.574219-8 8-8 4.421875 0 8 3.574219 8 8v16h128v-16c0-4.425781 3.574219-8 8-8 4.421875 0 8 3.574219 8 8v24c0 4.421875-3.578125 8-8 8zm0 0"/><path d="m456.128906 512.128906h-144c-4.425781 0-8-3.578125-8-8v-24c0-4.425781 3.574219-8 8-8 4.421875 0 8 3.574219 8 8v16h128v-16c0-4.425781 3.574219-8 8-8 4.421875 0 8 3.574219 8 8v24c0 4.421875-3.578125 8-8 8zm0 0"/><path d="m384.175781 384.160156c-22.054687 0-40-17.945312-40-40 0-22.046875 17.945313-39.984375 40-39.984375 22.054688 0 40 17.9375 40 39.984375 0 22.054688-17.945312 40-40 40zm0-63.984375c-13.230469 0-24 10.761719-24 23.984375 0 13.230469 10.769531 24 24 24s24-10.769531 24-24c0-13.230468-10.769531-23.984375-24-23.984375zm0 0"/><path d="m312.191406 264.128906c-4.421875 0-8-3.578125-8-8 0-4.425781 3.578125-8 8-8 8.808594 0 15.960938-7.160156 15.960938-15.953125 0-4.421875 3.574218-8 8-8 4.421875 0 8 3.578125 8 8 0 17.617188-14.335938 31.953125-31.960938 31.953125zm0 0"/><path d="m456.167969 264.128906c-17.625 0-31.960938-14.335937-31.960938-31.953125 0-4.421875 3.578125-8 8-8 4.425781 0 8 3.578125 8 8 0 8.800781 7.160157 15.953125 15.960938 15.953125 4.425781 0 8 3.574219 8 8 0 4.421875-3.574219 8-8 8zm0 0"/><path d="m432.207031 464.113281c-4.421875 0-8-3.578125-8-8 0-17.625 14.34375-31.96875 31.96875-31.96875 4.425781 0 8 3.574219 8 8 0 4.421875-3.574219 8-8 8-8.808593 0-15.96875 7.167969-15.96875 15.96875 0 4.421875-3.582031 8-8 8zm0 0"/><path d="m336.191406 464.144531c-4.421875 0-8-3.578125-8-8 0-8.832031-7.175781-16.015625-16-16.015625-4.421875 0-8-3.578125-8-8 0-4.425781 3.578125-8 8-8 17.648438 0 32 14.359375 32 32.015625 0 4.421875-3.574218 8-8 8zm0 0"/><path d="m40.105469 168c-4.425781 0-8-3.574219-8-8v-8.007812c0-4.425782 3.574219-8 8-8 4.421875 0 8 3.574218 8 8v8.007812c0 4.425781-3.578125 8-8 8zm0 0"/><path d="m168.0625 168c-4.414062 0-7.992188-3.566406-8-7.984375l-.015625-8.007813c-.007813-4.421874 3.5625-8.007812 7.984375-8.015624h.015625c4.417969 0 7.992187 3.566406 8 7.984374l.015625 8.007813c.007812 4.421875-3.558594 8.007813-7.984375 8.015625-.007813 0-.007813 0-.015625 0zm0 0"/><path d="m152.039062 112.007812h-95.933593c-4.425781 0-8-3.574218-8-8 0-4.421874 3.574219-8 8-8h95.933593c4.425782 0 8 3.578126 8 8 0 4.425782-3.574218 8-8 8zm0 0"/><path d="m104.078125 224c-4.421875 0-8-3.574219-8-8v-127.984375c0-4.421875 3.578125-8 8-8 4.425781 0 8 3.578125 8 8v127.984375c0 4.425781-3.574219 8-8 8zm0 0"/><path d="m144.054688 224h-79.949219c-4.425781 0-8-3.574219-8-8s3.574219-8 8-8h79.949219c4.425781 0 8 3.574219 8 8s-3.574219 8-8 8zm0 0"/><path d="m152.046875 184c-13.230469 0-24-10.769531-24-24 0-4.425781 3.578125-8 8-8 4.425781 0 8 3.574219 8 8 0 4.414062 3.585937 8 8 8 4.417969 0 8-3.585938 8-8 0-4.425781 3.578125-8 8-8 4.425781 0 8 3.574219 8 8 0 13.230469-10.757813 24-24 24zm0 0"/><path d="m136.046875 159.992188c-.832031 0-1.6875-.136719-2.527344-.417969-4.183593-1.390625-6.457031-5.917969-5.054687-10.117188l15.992187-47.984375c1.390625-4.183594 5.894531-6.464844 10.117188-5.058594 4.1875 1.394532 6.457031 5.921876 5.058593 10.121094l-15.992187 47.984375c-1.121094 3.359375-4.242187 5.472657-7.59375 5.472657zm0 0"/><path d="m168.03125 159.992188c-3.351562 0-6.472656-2.121094-7.582031-5.472657l-15.992188-47.984375c-1.402343-4.191406.863281-8.726562 5.054688-10.121094 4.222656-1.40625 8.71875.867188 10.121093 5.058594l15.992188 47.984375c1.398438 4.191407-.863281 8.726563-5.058594 10.117188-.847656.289062-1.695312.417969-2.535156.417969zm0 0"/><path d="m56.105469 184c-13.234375 0-24-10.769531-24-24 0-4.425781 3.574219-8 8-8 4.421875 0 8 3.574219 8 8 0 4.414062 3.582031 8 8 8 4.414062 0 8-3.585938 8-8 0-4.425781 3.574219-8 8-8 4.421875 0 8 3.574219 8 8 0 13.230469-10.769531 24-24 24zm0 0"/><path d="m40.105469 159.992188c-.832031 0-1.691407-.136719-2.53125-.417969-4.183594-1.390625-6.453125-5.917969-5.054688-10.117188l15.992188-47.984375c1.398437-4.183594 5.878906-6.464844 10.121093-5.058594 4.183594 1.394532 6.457032 5.921876 5.054688 10.121094l-15.992188 47.984375c-1.121093 3.359375-4.238281 5.472657-7.589843 5.472657zm0 0"/><path d="m72.089844 159.992188c-3.355469 0-6.472656-2.121094-7.585938-5.472657l-15.992187-47.976562c-1.398438-4.191407.863281-8.726563 5.054687-10.117188 4.234375-1.410156 8.722656.863281 10.121094 5.054688l15.992188 47.984375c1.398437 4.191406-.863282 8.726562-5.054688 10.121094-.847656.277343-1.695312.40625-2.535156.40625zm0 0"/><path d="m72.089844 159.992188h-31.984375c-4.425781 0-8-3.578126-8-8 0-4.425782 3.574219-8 8-8h31.984375c4.421875 0 8 3.574218 8 8 0 4.421874-3.578125 8-8 8zm0 0"/><path d="m168.03125 159.992188h-31.984375c-4.421875 0-8-3.578126-8-8 0-4.425782 3.578125-8 8-8h31.984375c4.425781 0 8 3.574218 8 8 0 4.421874-3.574219 8-8 8zm0 0"/><path d="m72.105469 168c-4.417969 0-7.992188-3.566406-8-7.984375l-.015625-8.007813c-.011719-4.421874 3.558594-8.007812 7.980468-8.015624h.019532c4.414062 0 7.988281 3.566406 8 7.984374l.015625 8.007813c.007812 4.421875-3.5625 8.007813-7.984375 8.015625-.007813 0-.007813 0-.015625 0zm0 0"/><path d="m136.0625 168c-4.421875 0-8-3.574219-8-8v-8.007812c0-4.425782 3.578125-8 8-8 4.425781 0 8 3.574218 8 8v8.007812c0 4.425781-3.574219 8-8 8zm0 0"/></svg>