<svg xmlns="http://www.w3.org/2000/svg" viewBox="0 0 30.108 33">
  <path id="bell" d="M31.5,27H4.5A1.806,1.806,0,0,1,3,25.95a1.424,1.424,0,0,1,.6-1.65S7.5,21.45,7.5,12a10.5,10.5,0,1,1,21,0c0,9.45,3.75,12.3,3.9,12.3a1.5,1.5,0,0,1,.6,1.65A1.631,1.631,0,0,1,31.5,27ZM7.65,24H28.2a24.615,24.615,0,0,1-2.7-12,7.5,7.5,0,0,0-15,0C10.5,18,9,21.75,7.65,24ZM18,34.5a4.233,4.233,0,0,1-2.25-.6,4.358,4.358,0,0,1-1.65-1.65,1.544,1.544,0,1,1,2.7-1.5c.15.15.3.45.6.6a1.518,1.518,0,0,0,2.1-.6,1.544,1.544,0,0,1,2.7,1.5A5.421,5.421,0,0,1,18,34.5Z" transform="translate(-2.946 -1.5)" fill="#5a5a5a"/>
</svg>
