<svg xmlns="http://www.w3.org/2000/svg" width="31.235" height="24.563" viewBox="0 0 31.235 24.563">
  <path id="Caminho_33" data-name="Caminho 33" d="M25.875,44.308H4.361A4.246,4.246,0,0,0,0,48.418V63.761a4.246,4.246,0,0,0,4.361,4.11H25.875a4.246,4.246,0,0,0,4.361-4.11V48.418A4.246,4.246,0,0,0,25.875,44.308Zm2.617,14.247H22.1a2.47,2.47,0,1,1,0-4.932h6.4v4.932Zm0-6.576H22.1a4.117,4.117,0,1,0,0,8.22h6.4v3.562a2.547,2.547,0,0,1-2.617,2.466H4.361a2.547,2.547,0,0,1-2.617-2.466V48.418a2.547,2.547,0,0,1,2.617-2.466H25.875a2.547,2.547,0,0,1,2.617,2.466Z" transform="translate(0.5 -43.808)" fill="#01c3e2" stroke="#01c3e2" stroke-width="1"/>
</svg>
