<?xml version="1.0" encoding="iso-8859-1"?>
<!-- Generator: Adobe Illustrator 19.0.0, SVG Export Plug-In . SVG Version: 6.00 Build 0)  -->
<svg version="1.1" id="Layer_1" xmlns="http://www.w3.org/2000/svg" xmlns:xlink="http://www.w3.org/1999/xlink" x="0px" y="0px"
	 viewBox="0 0 512 512" style="enable-background:new 0 0 512 512;" xml:space="preserve">
<g>
	<g>
		<g>
			<rect x="132.183" y="480.453" width="205.057" height="31.547"/>
			<path d="M473.385,299.551c-9.706-21.852-32.157-26.489-49.561-26.468v-0.053c0-0.841-0.01-1.683-0.031-2.524l-0.252-16.142
				H34.953l-0.263,16.079c-0.01,0.862-0.032,1.725-0.032,2.587c0,14.249,1.535,28.14,4.459,41.527H55.28h16.289h315.345h16.289
				h16.163c0.705-3.249,1.336-6.541,1.882-9.853c9.632-0.4,20.369,1.041,23.303,7.655c2.713,6.11,1.178,18.918-7.035,30.643
				c-5.437,7.75-16.688,19.118-37.741,23.639c3.659-6.625,6.94-13.471,9.801-20.537h-17.088h-17.519H83.536h-17.54H48.908
				c28.939,71.191,98.879,121.509,180.334,121.509c58.772,0,111.551-26.195,147.252-67.521c1.104,0.032,2.198,0.042,3.291,0.042
				c35.89,0,65.997-13.944,83.568-39.034C477.245,341.256,481.188,317.101,473.385,299.551z"/>
			<path d="M248.947,125.22l19.333-24.929c-1.31-1.017-7.979-7.421-8.031-13.315c-0.039-4.538,4.461-9.112,8.243-12.15
				c16.737-13.446,20.13-27.563,20.03-37.038C288.294,16.055,270.284,1.579,268.231,0l-19.234,25.005l-0.11-0.087
				c2.638,2.109,8.087,8.131,8.093,13.274c0.004,4.473-4.481,9.016-8.244,12.04c-16.703,13.42-20.112,27.535-20.031,37.014
				C228.892,109.041,246.894,123.628,248.947,125.22z"/>
			<path d="M170.079,195.402l19.333-24.929l0.11,0.086c-2.657-2.142-8.144-8.254-8.14-13.474c0.003-4.511,4.485-9.057,8.243-12.077
				c16.737-13.446,20.13-27.564,20.03-37.039c-0.229-21.733-18.24-36.208-20.292-37.787l-19.235,25.005
				c1.301,1,7.919,7.304,7.981,13.115c0.047,4.499-4.457,9.069-8.243,12.112c-16.703,13.419-20.112,27.535-20.031,37.014
				C150.024,179.223,168.027,193.81,170.079,195.402z"/>
			<path d="M297.755,195.419l19.333-24.929c-1.31-1.017-7.98-7.421-8.031-13.315c-0.039-4.536,4.461-9.111,8.243-12.15
				c16.737-13.446,20.13-27.563,20.03-37.039c-0.23-21.732-18.24-36.209-20.292-37.787l-19.234,25.004l-0.11-0.086
				c2.638,2.109,8.087,8.13,8.092,13.274c0.005,4.473-4.481,9.017-8.243,12.041c-16.703,13.419-20.112,27.535-20.031,37.014
				C277.699,179.24,295.702,193.828,297.755,195.419z"/>
		</g>
	</g>
</g>
<g>
</g>
<g>
</g>
<g>
</g>
<g>
</g>
<g>
</g>
<g>
</g>
<g>
</g>
<g>
</g>
<g>
</g>
<g>
</g>
<g>
</g>
<g>
</g>
<g>
</g>
<g>
</g>
<g>
</g>
</svg>
