<svg xmlns="http://www.w3.org/2000/svg" viewBox="0 0 33 33">
  <g id="help-circle" transform="translate(-1.5 -1.5)">
    <path id="Tracé_14" data-name="Tracé 14" d="M18,34.5A16.5,16.5,0,1,1,34.5,18,16.452,16.452,0,0,1,18,34.5Zm0-30A13.5,13.5,0,1,0,31.5,18,13.444,13.444,0,0,0,18,4.5Z" fill="#fff"/>
    <path id="Tracé_15" data-name="Tracé 15" d="M17.85,21a1.441,1.441,0,0,1-1.35-1.05A1.56,1.56,0,0,1,17.4,18c.9-.3,3.45-1.5,3.45-3.15A2.933,2.933,0,0,0,18.9,12,3.121,3.121,0,0,0,15,13.8a1.56,1.56,0,0,1-1.95.9c-.75,0-1.05-.9-.9-1.65a5.839,5.839,0,0,1,7.65-3.6,6.142,6.142,0,0,1,4.05,5.7c0,3.9-4.95,5.7-5.55,5.85ZM18,27a1.5,1.5,0,0,1,0-3h0a1.5,1.5,0,0,1,0,3Z" fill="#fff"/>
  </g>
</svg>
