<svg height="512pt" viewBox="-15 0 512 512" width="512pt" xmlns="http://www.w3.org/2000/svg"><path d="m212 93v270h270v-270zm30 30h60v30h-30v30h-30zm60 210h-60v-60h30v30h30zm65-120h-35v30h35v90h-30v-60h-35v-30h-60v-30h60v-30h65zm5-60h-40v-30h40zm80 180h-55v-30h25v-30h30zm0-90h-55v-30h25v-30h30zm0-90h-50v-30h50zm0 0"/><path d="m182 63h138v-18c0-24.8125-20.1875-45-45-45h-230c-24.8125 0-45 20.1875-45 45v422c0 24.8125 20.1875 45 45 45h230c24.8125 0 45-20.1875 45-45v-74h-138zm-79 0c8.285156 0 15 6.714844 15 15s-6.714844 15-15 15-15-6.714844-15-15 6.714844-15 15-15zm129 359v30h-144v-30zm0 0"/></svg>