<?xml version="1.0" encoding="iso-8859-1"?>
<!-- Generator: Adobe Illustrator 19.0.0, SVG Export Plug-In . SVG Version: 6.00 Build 0)  -->
<svg version="1.1" id="Layer_1" xmlns="http://www.w3.org/2000/svg" xmlns:xlink="http://www.w3.org/1999/xlink" x="0px" y="0px"
	 viewBox="0 0 512 512" style="enable-background:new 0 0 512 512;" xml:space="preserve">
<g>
	<g>
		<g>
			<polygon points="341.825,316.949 292.245,316.949 320.029,480.653 288.232,480.653 260.449,316.949 248.693,316.949 
				220.91,480.653 189.113,480.653 216.897,316.949 168.121,316.949 126.284,480.653 99.67,480.653 99.67,512 118.269,512 
				407.57,512 407.57,480.653 383.663,480.653 			"/>
			<polygon points="262.319,285.602 295.108,92.296 215.633,92.296 248.422,285.602 			"/>
			<path d="M364.28,60.803c-0.345-0.428-0.711-0.857-1.076-1.285c-15.276-17.732-42.924-38.494-90.185-42.841
				c-0.003,0-0.005,0-0.008-0.001C272.277,7.347,264.489,0,254.971,0c-9.496,0-17.272,7.312-18.036,16.613
				c-0.006,0-0.013,0.001-0.018,0.001c-47.721,4.201-75.4,25.119-90.603,42.977c-0.345,0.407-0.69,0.815-1.014,1.212
				c-0.042,0.052-0.084,0.094-0.115,0.146h219.22C364.364,60.897,364.322,60.855,364.28,60.803z"/>
			<path d="M133.608,152.325l34.064,133.277h48.964l-32.81-193.306h-90.99c-7.429,0-11.065,9.059-5.705,14.2l46.477,45.819V152.325z
				"/>
			<polygon points="326.915,92.296 294.115,285.602 342.274,285.602 383.663,123.643 396.076,123.643 396.076,208.98 
				427.423,208.98 427.423,92.296 			"/>
		</g>
	</g>
</g>
<g>
</g>
<g>
</g>
<g>
</g>
<g>
</g>
<g>
</g>
<g>
</g>
<g>
</g>
<g>
</g>
<g>
</g>
<g>
</g>
<g>
</g>
<g>
</g>
<g>
</g>
<g>
</g>
<g>
</g>
</svg>
