<?xml version="1.0" encoding="UTF-8" standalone="no"?>
<svg
   xmlns:dc="http://purl.org/dc/elements/1.1/"
   xmlns:cc="http://creativecommons.org/ns#"
   xmlns:rdf="http://www.w3.org/1999/02/22-rdf-syntax-ns#"
   xmlns:svg="http://www.w3.org/2000/svg"
   xmlns="http://www.w3.org/2000/svg"
   xmlns:sodipodi="http://sodipodi.sourceforge.net/DTD/sodipodi-0.dtd"
   xmlns:inkscape="http://www.inkscape.org/namespaces/inkscape"
   viewBox="0 -19 512 512"
   version="1.1"
   id="svg1250"
   sodipodi:docname="news.svg"
   inkscape:version="1.0 (4035a4f, 2020-05-01)">
  <metadata
     id="metadata1256">
    <rdf:RDF>
      <cc:Work
         rdf:about="">
        <dc:format>image/svg+xml</dc:format>
        <dc:type
           rdf:resource="http://purl.org/dc/dcmitype/StillImage" />
      </cc:Work>
    </rdf:RDF>
  </metadata>
  <defs
     id="defs1254" />
  <sodipodi:namedview
     inkscape:document-rotation="0"
     pagecolor="#ffffff"
     bordercolor="#666666"
     borderopacity="1"
     objecttolerance="10"
     gridtolerance="10"
     guidetolerance="10"
     inkscape:pageopacity="0"
     inkscape:pageshadow="2"
     inkscape:window-width="1713"
     inkscape:window-height="888"
     id="namedview1252"
     showgrid="false"
     inkscape:zoom="1.6621094"
     inkscape:cx="256"
     inkscape:cy="183.80259"
     inkscape:window-x="256"
     inkscape:window-y="41"
     inkscape:window-maximized="0"
     inkscape:current-layer="svg1250" />
  <path
     d="m486.15625 0h-374.597656c-14.25 0-25.839844 11.59375-25.839844 25.84375v39.230469h-59.875c-14.25 0-25.84375 11.59375-25.84375 25.84375v332.539062c0 27.636719 22.394531 50.144531 49.996094 50.34375h.101562c.089844.003907.171875.011719.261719.011719h265.308594c4.140625 0 7.5-3.355469 7.5-7.5 0-4.140625-3.359375-7.5-7.5-7.5h-229.484375c8.980468-9.097656 14.535156-21.589844 14.535156-35.355469v-175.386719c0-4.140624-3.359375-7.5-7.5-7.5-4.144531 0-7.5 3.359376-7.5 7.5v175.386719c0 19.429688-15.757812 35.246094-35.167969 35.351563-.0625 0-.125-.007813-.191406-.007813-19.496094-.003906-35.359375-15.859375-35.359375-35.34375v-332.539062c0-5.976563 4.863281-10.84375 10.84375-10.84375h59.875v139.996093c0 4.144532 3.355469 7.5 7.5 7.5 4.140625 0 7.5-3.355468 7.5-7.5v-194.226562c0-5.980469 4.863281-10.84375 10.839844-10.84375h374.597656c5.980469 0 10.84375 4.863281 10.84375 10.84375v397.613281c0 19.496094-15.863281 35.355469-35.359375 35.355469h-117.972656c-4.144531 0-7.5 3.359375-7.5 7.5 0 4.144531 3.355469 7.5 7.5 7.5h117.972656c27.769531 0 50.359375-22.589844 50.359375-50.355469v-397.613281c0-14.25-11.59375-25.84375-25.84375-25.84375zm0 0"
     id="path1228" />
  <path
     d="m164.320312 299.261719h102.863282c9.785156 0 17.746094-7.960938 17.746094-17.746094v-102.863281c0-9.785156-7.960938-17.746094-17.746094-17.746094h-102.863282c-9.785156 0-17.746093 7.960938-17.746093 17.746094v102.863281c0 9.785156 7.960937 17.746094 17.746093 17.746094zm-2.746093-120.609375c0-1.515625 1.230469-2.746094 2.746093-2.746094h102.863282c1.511718 0 2.746094 1.230469 2.746094 2.746094v102.863281c0 1.511719-1.234376 2.746094-2.746094 2.746094h-102.863282c-1.515624 0-2.746093-1.234375-2.746093-2.746094zm0 0"
     id="path1230" />
  <path
     d="m312.191406 175.90625h139.199219c4.140625 0 7.5-3.355469 7.5-7.5s-3.359375-7.5-7.5-7.5h-139.199219c-4.140625 0-7.5 3.355469-7.5 7.5s3.359375 7.5 7.5 7.5zm0 0"
     id="path1232" />
  <path
     d="m312.191406 237.585938h139.199219c4.140625 0 7.5-3.359376 7.5-7.5 0-4.144532-3.359375-7.5-7.5-7.5h-139.199219c-4.140625 0-7.5 3.355468-7.5 7.5 0 4.140624 3.359375 7.5 7.5 7.5zm0 0"
     id="path1234" />
  <path
     d="m312.191406 299.261719h139.199219c4.140625 0 7.5-3.359375 7.5-7.5 0-4.144531-3.359375-7.5-7.5-7.5h-139.199219c-4.140625 0-7.5 3.355469-7.5 7.5 0 4.140625 3.359375 7.5 7.5 7.5zm0 0"
     id="path1236" />
  <path
     d="m154.074219 360.9375h297.316406c4.140625 0 7.5-3.355469 7.5-7.5 0-4.140625-3.359375-7.5-7.5-7.5h-297.316406c-4.140625 0-7.5 3.359375-7.5 7.5 0 4.144531 3.359375 7.5 7.5 7.5zm0 0"
     id="path1238" />
  <path
     d="m154.074219 422.617188h297.316406c4.140625 0 7.5-3.355469 7.5-7.5 0-4.144532-3.359375-7.5-7.5-7.5h-297.316406c-4.140625 0-7.5 3.355468-7.5 7.5 0 4.144531 3.359375 7.5 7.5 7.5zm0 0"
     id="path1240" />
  <text
     xml:space="preserve"
     style="font-style:normal;font-weight:normal;font-size:92.022px;line-height:1.25;font-family:sans-serif;fill-opacity:1;stroke:none;stroke-width:2.30052"
     x="172.35037"
     y="108.31552"
     id="text1830"
     transform="scale(0.83112546,1.2031878)"><tspan
       sodipodi:role="line"
       id="tspan1828"
       x="172.35037"
       y="108.31552"
       style="font-style:normal;font-variant:normal;font-weight:bold;font-stretch:normal;font-size:92.022px;font-family:sans-serif;-inkscape-font-specification:'sans-serif, Bold';font-variant-ligatures:normal;font-variant-caps:normal;font-variant-numeric:normal;font-variant-east-asian:normal;stroke-width:2.30052">Notícias</tspan></text>
</svg>
