<?xml version="1.0" encoding="UTF-8" standalone="no"?>
<svg
   xmlns:dc="http://purl.org/dc/elements/1.1/"
   xmlns:cc="http://creativecommons.org/ns#"
   xmlns:rdf="http://www.w3.org/1999/02/22-rdf-syntax-ns#"
   xmlns:svg="http://www.w3.org/2000/svg"
   xmlns="http://www.w3.org/2000/svg"
   xmlns:sodipodi="http://sodipodi.sourceforge.net/DTD/sodipodi-0.dtd"
   xmlns:inkscape="http://www.inkscape.org/namespaces/inkscape"
   sodipodi:docname="questins.svg"
   inkscape:version="1.0 (4035a4f, 2020-05-01)"
   id="svg64"
   version="1.1"
   viewBox="0 0 210 297"
   height="297mm"
   width="210mm">
  <defs
     id="defs58" />
  <sodipodi:namedview
     inkscape:window-maximized="0"
     inkscape:window-y="23"
     inkscape:window-x="890"
     inkscape:window-height="979"
     inkscape:window-width="1498"
     showgrid="false"
     inkscape:document-rotation="0"
     inkscape:current-layer="layer1"
     inkscape:document-units="mm"
     inkscape:cy="560"
     inkscape:cx="400"
     inkscape:zoom="0.35"
     inkscape:pageshadow="2"
     inkscape:pageopacity="0.0"
     borderopacity="1.0"
     bordercolor="#666666"
     pagecolor="#ffffff"
     id="base" />
  <metadata
     id="metadata61">
    <rdf:RDF>
      <cc:Work
         rdf:about="">
        <dc:format>image/svg+xml</dc:format>
        <dc:type
           rdf:resource="http://purl.org/dc/dcmitype/StillImage" />
        <dc:title></dc:title>
      </cc:Work>
    </rdf:RDF>
  </metadata>
  <g
     id="layer1"
     inkscape:groupmode="layer"
     inkscape:label="Layer 1">
    <g
       transform="matrix(0.01758751,0,0,-0.01480168,14.115591,94.758209)"
       id="g20"
       style="fill:#cccccc">
      <path
         d="M 795.6,5004.1 C 546.5,4967.7 301.2,4783.7 193.9,4553.8 117.3,4390.9 100,4262.5 100,3793.1 V 3394.5 H 4181.5 8263 V 3862 c 0,413.9 -3.8,481 -38.3,592.1 -70.9,229.9 -251,415.8 -500.1,517.4 l -103.5,42.2 -3362.9,1.9 C 2409,5017.5 851.1,5011.8 795.6,5004.1 Z M 1512.2,4573 c 283.6,-141.8 306.6,-536.5 42.1,-712.8 -70.9,-47.9 -99.6,-53.7 -229.9,-53.7 -134.1,0 -155.2,5.7 -231.9,57.5 -182,128.4 -233.8,371.7 -118.8,559.5 113.1,182 343.1,247.2 538.5,149.5 z m 1228.3,-1.9 c 300.8,-149.5 298.9,-588.3 -5.7,-735.8 -70.9,-34.5 -113.1,-40.2 -208.9,-34.5 -195.5,11.5 -325.8,118.8 -377.5,310.4 -67.1,245.3 143.7,509.7 404.3,509.7 55.6,0 124.6,-17.3 187.8,-49.8 z"
         id="path12"
         style="fill:#cccccc" />
      <path
         d="m 100,727.2 c 0,-1350.9 7.7,-2291.7 19.2,-2360.7 57.5,-350.7 331.5,-624.7 682.2,-682.2 69,-11.5 1107.6,-19.2 2634.8,-19.2 h 2521.7 l -34.5,107.3 c -109.2,331.5 -136.1,845.1 -59.4,1195.7 107.3,498.2 323.8,896.8 684.1,1255.1 421.6,423.5 963.8,670.7 1557.9,712.8 l 157.1,11.5 V 1959.3 2973 H 4181.5 100 Z"
         id="path14"
         style="fill:#cccccc" />
      <path
         d="M 8128.8,106.3 C 7511.8,35.4 7004,-342 6772.2,-903.5 c -65.2,-155.2 -118.8,-390.9 -118.8,-521.2 v -86.2 h 402.4 402.4 v 63.2 c 0,34.5 13.4,111.1 30.7,168.6 115,383.2 515.5,640 902.5,576.8 364.1,-61.3 634.3,-329.6 697.5,-691.8 55.6,-310.4 -101.6,-643.8 -381.3,-824 -147.5,-92 -266.4,-116.9 -563.4,-116.9 h -264.4 v -613.2 -613.2 h 402.4 402.4 v 239.5 c 0,205 3.8,239.5 30.7,239.5 57.5,0 318.1,120.7 454.1,210.8 126.5,82.4 320,262.5 413.9,383.2 84.3,111.1 176.3,293.2 229.9,454.2 199.3,590.2 49.8,1224.4 -389,1665.1 -216.6,216.8 -477.2,362.4 -764.6,429.5 -162.9,36.4 -413.9,59.4 -530.8,45.9 z"
         id="path16"
         style="fill:#cccccc" />
      <path
         d="m 8088.6,-4026.9 c -277.8,-147.5 -277.8,-561.4 0,-701.3 164.8,-82.4 335.3,-57.5 465.6,69 203.1,197.4 138,538.4 -122.6,647.7 -105.4,42.1 -243.4,36.4 -343,-15.4 z"
         id="path18"
         style="fill:#cccccc" />
    </g>
  </g>
</svg>
