<svg xmlns="http://www.w3.org/2000/svg" viewBox="0 0 36.15 30">
  <path id="users" d="M25.5,33A1.417,1.417,0,0,1,24,31.5v-3A4.42,4.42,0,0,0,19.5,24H7.5A4.42,4.42,0,0,0,3,28.5v3A1.417,1.417,0,0,1,1.5,33,1.417,1.417,0,0,1,0,31.5v-3A7.427,7.427,0,0,1,7.5,21h12A7.427,7.427,0,0,1,27,28.5v3A1.417,1.417,0,0,1,25.5,33Zm-12-15A7.427,7.427,0,0,1,6,10.5,7.427,7.427,0,0,1,13.5,3,7.427,7.427,0,0,1,21,10.5,7.427,7.427,0,0,1,13.5,18Zm0-12A4.42,4.42,0,0,0,9,10.5,4.42,4.42,0,0,0,13.5,15,4.42,4.42,0,0,0,18,10.5,4.42,4.42,0,0,0,13.5,6Zm21,27A1.417,1.417,0,0,1,33,31.5v-3a4.373,4.373,0,0,0-3.3-4.35,1.474,1.474,0,0,1,.75-2.85,7.842,7.842,0,0,1,5.7,7.2v3A1.635,1.635,0,0,1,34.5,33ZM24,17.85a1.579,1.579,0,0,1-1.5-1.2,1.543,1.543,0,0,1,1.05-1.8,4.6,4.6,0,0,0,3.3-3.3A4.7,4.7,0,0,0,23.55,6c-.75,0-1.2-.9-1.05-1.65A1.424,1.424,0,0,1,24.3,3.3a7.469,7.469,0,0,1,5.4,9.15,7.325,7.325,0,0,1-5.4,5.4Z" transform="translate(0 -3)" fill="#5a5a5a"/>
</svg>
