<svg xmlns="http://www.w3.org/2000/svg" width="31.348" height="40.023" viewBox="0 0 31.348 40.023">
  <g id="Grupo_98" data-name="Grupo 98" transform="translate(-53 -283)">
    <g id="Grupo_91" data-name="Grupo 91">
      <g id="etiqueta-de-preco" transform="translate(-2.486 283)">
        <g id="Grupo_86" data-name="Grupo 86" transform="translate(55.486 3.127)">
          <path id="Caminho_39" data-name="Caminho 39" d="M82.456,76.9h-25.8a1.173,1.173,0,0,1-1.173-1.173V50.554a1.173,1.173,0,0,1,.483-.948l12.9-9.381a1.173,1.173,0,0,1,1.379,0l12.9,9.381a1.173,1.173,0,0,1,.483.948v25.17A1.173,1.173,0,0,1,82.456,76.9Z" transform="translate(-55.486 -40)" fill="#ffd845"/>
        </g>
        <path id="Caminho_40" data-name="Caminho 40" d="M249.075,49.606l-12.9-9.381a1.171,1.171,0,0,0-.69-.224V76.9h12.9a1.173,1.173,0,0,0,1.173-1.173V50.554a1.173,1.173,0,0,0-.483-.948Z" transform="translate(-165.929 -36.874)" fill="#ffb454"/>
      </g>
      <g id="Grupo_90" data-name="Grupo 90" transform="translate(1.655)">
        <path id="Caminho_54" data-name="Caminho 54" d="M11.843.079h1.184L14,5.245,14.977.079h1.189L14.529,7.69H13.48Zm6.7,7.69a1.909,1.909,0,0,1-1.041-.28,1.817,1.817,0,0,1-.684-.8,2.884,2.884,0,0,1-.239-1.22V2.3a2.9,2.9,0,0,1,.239-1.222,1.8,1.8,0,0,1,.684-.8,2.1,2.1,0,0,1,2.085,0,1.8,1.8,0,0,1,.684.8A2.9,2.9,0,0,1,20.506,2.3V5.47a2.884,2.884,0,0,1-.239,1.22,1.817,1.817,0,0,1-.684.8A1.917,1.917,0,0,1,18.538,7.768Zm0-1.366a.746.746,0,0,0,.427-.123.77.77,0,0,0,.279-.348,1.343,1.343,0,0,0,.1-.529V2.356a1.328,1.328,0,0,0-.1-.523.77.77,0,0,0-.279-.348.746.746,0,0,0-.427-.123.736.736,0,0,0-.424.123.776.776,0,0,0-.276.348,1.328,1.328,0,0,0-.1.523V5.4a1.343,1.343,0,0,0,.1.529.776.776,0,0,0,.276.348A.736.736,0,0,0,18.538,6.4Z" transform="translate(53.803 302.822)" fill="#2e2e2e"/>
        <path id="Caminho_53" data-name="Caminho 53" d="M0,.079H1.154l1.92,5.454L2.965,5.7V.079H4.027V7.684H2.865L.953,2.418l.109-.173V7.684H0Zm7.009,7.69a1.909,1.909,0,0,1-1.041-.28,1.817,1.817,0,0,1-.684-.8,2.884,2.884,0,0,1-.239-1.22V2.3a2.9,2.9,0,0,1,.239-1.222,1.8,1.8,0,0,1,.684-.8A1.923,1.923,0,0,1,7.009,0,1.931,1.931,0,0,1,8.054.277a1.8,1.8,0,0,1,.684.8A2.9,2.9,0,0,1,8.977,2.3V5.47a2.884,2.884,0,0,1-.239,1.22,1.817,1.817,0,0,1-.684.8A1.917,1.917,0,0,1,7.009,7.768Zm0-1.366a.746.746,0,0,0,.427-.123.77.77,0,0,0,.279-.348,1.343,1.343,0,0,0,.1-.529V2.356a1.328,1.328,0,0,0-.1-.523.77.77,0,0,0-.279-.348.746.746,0,0,0-.427-.123.736.736,0,0,0-.424.123.776.776,0,0,0-.276.348,1.328,1.328,0,0,0-.1.523V5.4a1.343,1.343,0,0,0,.1.529.776.776,0,0,0,.276.348A.736.736,0,0,0,7.009,6.4Z" transform="translate(56.345 302.822)" fill="#454040"/>
      </g>
    </g>
    <g id="Grupo_97" data-name="Grupo 97" transform="translate(37 10)">
      <g id="Grupo_95" data-name="Grupo 95" transform="translate(-156 -101)">
        <g id="Grupo_93" data-name="Grupo 93" transform="translate(88)">
          <g id="Grupo_96" data-name="Grupo 96">
            <g id="Grupo_89" data-name="Grupo 89" transform="translate(-4280 415)">
              <g id="etiqueta-de-preco-2" data-name="etiqueta-de-preco" transform="translate(4308.514 -41)">
                <path id="Caminho_44" data-name="Caminho 44" d="M235.673,0h-9.85a4.462,4.462,0,0,0-4.381,3.648l.408-.3a1.173,1.173,0,0,1,1.379,0l.594.432a2.114,2.114,0,0,1,2-1.438h9.85a1.8,1.8,0,0,1,0,3.6s-8.818,0-8.868.011l3.21,2.335h5.658a4.143,4.143,0,0,0,0-8.287Z" transform="translate(-152.982)" fill="#2e2e2e"/>
                <path id="Caminho_51" data-name="Caminho 51" d="M238.768,0a4.445,4.445,0,0,0-3.283,1.447v9.106a1.173,1.173,0,0,0,1.173-1.173V4.456a2.113,2.113,0,0,1,2.111-2.111h1.055V0Z" transform="translate(-165.928)" fill="#2e2e2e"/>
              </g>
            </g>
            <g id="Elipse_8" data-name="Elipse 8" transform="translate(96 382)" fill="#2e2e2e" stroke="#2e2e2e" stroke-width="1">
              <ellipse cx="2" cy="1.5" rx="2" ry="1.5" stroke="none"/>
              <ellipse cx="2" cy="1.5" rx="1.5" ry="1" fill="none"/>
            </g>
            <path id="Caminho_59" data-name="Caminho 59" d="M226,0h-1.055a4.461,4.461,0,0,0-4.456,4.456V9.381a1.173,1.173,0,1,0,2.345,0V4.456a2.113,2.113,0,0,1,2.111-2.111H226Z" transform="translate(-123.587 374)" fill="#454040"/>
          </g>
        </g>
        <path id="Caminho_60" data-name="Caminho 60" d="M238.768,0a4.445,4.445,0,0,0-3.283,1.447v9.106a1.173,1.173,0,0,0,1.173-1.173V4.456a2.113,2.113,0,0,1,2.111-2.111h1.055V0Z" transform="translate(-49.414 374)" fill="#2e2e2e"/>
      </g>
    </g>
  </g>
</svg>
