<svg xmlns="http://www.w3.org/2000/svg" width="42.852" height="44.648" viewBox="0 0 42.852 44.648">
  <g id="Grupo_126" data-name="Grupo 126" transform="translate(-5122 -941.353)">
    <g id="percentage" transform="translate(5122 943.149)">
      <path id="Caminho_64" data-name="Caminho 64" d="M407.623,82.888,405.7,81.414l1.475-1.922a1.294,1.294,0,0,0-.531-1.983l-2.238-.927.927-2.238a1.294,1.294,0,0,0-1.026-1.778l-2.4-.316.316-2.4A1.294,1.294,0,0,0,400.77,68.4l-1.026.135V99.3l1.026.135a1.294,1.294,0,0,0,1.452-1.452l-.316-2.4,2.4-.316a1.294,1.294,0,0,0,1.026-1.778l-.927-2.238,2.238-.927a1.294,1.294,0,0,0,.531-1.983L405.7,86.416l1.922-1.475a1.294,1.294,0,0,0,0-2.053Z" transform="translate(-365.278 -62.489)" fill="#ffb454"/>
      <path id="Caminho_65" data-name="Caminho 65" d="M32.774,39.029l.316-2.4,1.375.181a1.343,1.343,0,0,0,.6-1.316l-.278-2.4,2.112-.316a1.311,1.311,0,0,0,.9-1.778l-.815-2.238,1.968-.927a1.38,1.38,0,0,0,.467-1.983l-1.3-1.922,1.69-1.475a1.406,1.406,0,0,0,0-2.053l-1.69-1.475L39.426,17a1.38,1.38,0,0,0-.467-1.983l-1.968-.927.815-2.238a1.311,1.311,0,0,0-.9-1.778l-2.112-.316.278-2.4a1.343,1.343,0,0,0-.6-1.316l-1.375.181-.027-.207-.289-2.195A1.294,1.294,0,0,0,31,2.8l-2.238.927-.927-2.238A1.294,1.294,0,0,0,25.848.953L23.926,2.428,22.452.506a1.294,1.294,0,0,0-2.053,0L18.924,2.428,17,.953a1.294,1.294,0,0,0-1.983.531l-.927,2.238L11.854,2.8a1.294,1.294,0,0,0-1.778,1.026l-.316,2.4-2.4-.316A1.294,1.294,0,0,0,5.907,7.359l.316,2.4-2.4.316A1.294,1.294,0,0,0,2.8,11.854l.927,2.238-2.238.927A1.294,1.294,0,0,0,.953,17l1.475,1.922L.506,20.4a1.294,1.294,0,0,0,0,2.053l1.922,1.475L.953,25.848a1.294,1.294,0,0,0,.531,1.983l2.238.927L2.8,31a1.294,1.294,0,0,0,1.026,1.778l2.4.316-.316,2.4a1.294,1.294,0,0,0,1.452,1.452l2.4-.316.316,2.4a1.294,1.294,0,0,0,1.778,1.026l2.238-.927.927,2.238A1.294,1.294,0,0,0,17,41.9l1.922-1.475L20.4,42.345a1.294,1.294,0,0,0,2.053,0l1.475-1.922L25.848,41.9a1.294,1.294,0,0,0,1.983-.531l.927-2.238L31,40.055A1.294,1.294,0,0,0,32.774,39.029Z" fill="#ffd845"/>
    </g>
    <g id="Grupo_124" data-name="Grupo 124" transform="translate(5075.655 657.156)">
      <path id="Caminho_54" data-name="Caminho 54" d="M11.843.1h1.442l1.188,6.293L15.661.1h1.448l-1.994,9.27H13.836ZM20,9.462a2.325,2.325,0,0,1-1.267-.341,2.214,2.214,0,0,1-.833-.972,3.513,3.513,0,0,1-.292-1.486V2.8A3.534,3.534,0,0,1,17.9,1.31a2.19,2.19,0,0,1,.833-.972,2.556,2.556,0,0,1,2.54,0,2.19,2.19,0,0,1,.833.972A3.534,3.534,0,0,1,22.4,2.8V6.663A3.513,3.513,0,0,1,22.1,8.148a2.214,2.214,0,0,1-.833.972A2.335,2.335,0,0,1,20,9.462ZM20,7.8a.909.909,0,0,0,.52-.15.938.938,0,0,0,.339-.424,1.636,1.636,0,0,0,.117-.644V2.869a1.618,1.618,0,0,0-.117-.638.938.938,0,0,0-.339-.424.909.909,0,0,0-.52-.15.9.9,0,0,0-.517.15.945.945,0,0,0-.337.424,1.618,1.618,0,0,0-.117.638V6.58a1.636,1.636,0,0,0,.117.644.945.945,0,0,0,.337.424A.9.9,0,0,0,20,7.8Z" transform="translate(55.83 302.822)" fill="#2e2e2e"/>
      <path id="Caminho_53" data-name="Caminho 53" d="M0,.1H1.405L3.744,6.739l-.133.2V.1H4.905V9.36H3.489L1.161,2.946l.133-.21V9.36H0ZM8.537,9.462A2.325,2.325,0,0,1,7.27,9.121a2.214,2.214,0,0,1-.833-.972,3.513,3.513,0,0,1-.292-1.486V2.8A3.534,3.534,0,0,1,6.438,1.31,2.19,2.19,0,0,1,7.27.338,2.342,2.342,0,0,1,8.537,0,2.352,2.352,0,0,1,9.81.338a2.19,2.19,0,0,1,.833.972A3.534,3.534,0,0,1,10.934,2.8V6.663a3.513,3.513,0,0,1-.292,1.486,2.214,2.214,0,0,1-.833.972A2.335,2.335,0,0,1,8.537,9.462Zm0-1.664a.909.909,0,0,0,.52-.15A.938.938,0,0,0,9.4,7.224a1.636,1.636,0,0,0,.117-.644V2.869A1.618,1.618,0,0,0,9.4,2.232a.938.938,0,0,0-.339-.424.909.909,0,0,0-.52-.15.9.9,0,0,0-.517.15.945.945,0,0,0-.337.424,1.618,1.618,0,0,0-.117.638V6.58a1.636,1.636,0,0,0,.117.644.945.945,0,0,0,.337.424A.9.9,0,0,0,8.537,7.8Z" transform="translate(56.345 302.822)" fill="#2e2e2e"/>
    </g>
    <g id="Elipse_9" data-name="Elipse 9" transform="translate(5141 950)" fill="#2e2e2e" stroke="#2e2e2e" stroke-width="1">
      <ellipse cx="2" cy="1.5" rx="2" ry="1.5" stroke="none"/>
      <ellipse cx="2" cy="1.5" rx="1.5" ry="1" fill="none"/>
    </g>
    <path id="Caminho_60" data-name="Caminho 60" d="M235.485,1.483v10.99a1.311,1.311,0,0,0,1.173-1.415V5.114C236.658,3.71,236.3.411,235.485,1.483Z" transform="translate(4907.49 940.08)" fill="#2e2e2e"/>
    <path id="Caminho_69" data-name="Caminho 69" d="M236.761,1.483v10.99a1.351,1.351,0,0,1-1.276-1.415V5.114C235.485,3.71,235.874.411,236.761,1.483Z" transform="translate(4906.387 940.08)" fill="#454040"/>
  </g>
</svg>
