<svg xmlns="http://www.w3.org/2000/svg" width="42.852" height="44.648" viewBox="0 0 42.852 44.648">
  <g id="Grupo_129" data-name="Grupo 129" transform="translate(-5158 -941.353)">
    <g id="Grupo_125" data-name="Grupo 125" transform="translate(36)">
      <g id="percentage" transform="translate(5122 943.149)">
        <path id="Caminho_64" data-name="Caminho 64" d="M407.623,82.888,405.7,81.414l1.475-1.922a1.294,1.294,0,0,0-.531-1.983l-2.238-.927.927-2.238a1.294,1.294,0,0,0-1.026-1.778l-2.4-.316.316-2.4A1.294,1.294,0,0,0,400.77,68.4l-1.026.135V99.3l1.026.135a1.294,1.294,0,0,0,1.452-1.452l-.316-2.4,2.4-.316a1.294,1.294,0,0,0,1.026-1.778l-.927-2.238,2.238-.927a1.294,1.294,0,0,0,.531-1.983L405.7,86.416l1.922-1.475a1.294,1.294,0,0,0,0-2.053Z" transform="translate(-365.278 -62.489)" fill="#ff2e2e"/>
        <path id="Caminho_65" data-name="Caminho 65" d="M32.774,39.029l.316-2.4,1.375.181a1.343,1.343,0,0,0,.6-1.316l-.278-2.4,2.112-.316a1.311,1.311,0,0,0,.9-1.778l-.815-2.238,1.968-.927a1.38,1.38,0,0,0,.467-1.983l-1.3-1.922,1.69-1.475a1.406,1.406,0,0,0,0-2.053l-1.69-1.475L39.426,17a1.38,1.38,0,0,0-.467-1.983l-1.968-.927.815-2.238a1.311,1.311,0,0,0-.9-1.778l-2.112-.316.278-2.4a1.343,1.343,0,0,0-.6-1.316l-1.375.181-.027-.207-.289-2.195A1.294,1.294,0,0,0,31,2.8l-2.238.927-.927-2.238A1.294,1.294,0,0,0,25.848.953L23.926,2.428,22.452.506a1.294,1.294,0,0,0-2.053,0L18.924,2.428,17,.953a1.294,1.294,0,0,0-1.983.531l-.927,2.238L11.854,2.8a1.294,1.294,0,0,0-1.778,1.026l-.316,2.4-2.4-.316A1.294,1.294,0,0,0,5.907,7.359l.316,2.4-2.4.316A1.294,1.294,0,0,0,2.8,11.854l.927,2.238-2.238.927A1.294,1.294,0,0,0,.953,17l1.475,1.922L.506,20.4a1.294,1.294,0,0,0,0,2.053l1.922,1.475L.953,25.848a1.294,1.294,0,0,0,.531,1.983l2.238.927L2.8,31a1.294,1.294,0,0,0,1.026,1.778l2.4.316-.316,2.4a1.294,1.294,0,0,0,1.452,1.452l2.4-.316.316,2.4a1.294,1.294,0,0,0,1.778,1.026l2.238-.927.927,2.238A1.294,1.294,0,0,0,17,41.9l1.922-1.475L20.4,42.345a1.294,1.294,0,0,0,2.053,0l1.475-1.922L25.848,41.9a1.294,1.294,0,0,0,1.983-.531l.927-2.238L31,40.055A1.294,1.294,0,0,0,32.774,39.029Z" fill="#ff7d68"/>
      </g>
      <g id="Elipse_9" data-name="Elipse 9" transform="translate(5141 950)" fill="#2e2e2e" stroke="#2e2e2e" stroke-width="1">
        <ellipse cx="2" cy="1.5" rx="2" ry="1.5" stroke="none"/>
        <ellipse cx="2" cy="1.5" rx="1.5" ry="1" fill="none"/>
      </g>
      <path id="Caminho_60" data-name="Caminho 60" d="M235.485,1.483v10.99a1.311,1.311,0,0,0,1.173-1.415V5.114C236.658,3.71,236.3.411,235.485,1.483Z" transform="translate(4907.49 940.08)" fill="#2e2e2e"/>
      <path id="Caminho_69" data-name="Caminho 69" d="M236.761,1.483v10.99a1.351,1.351,0,0,1-1.276-1.415V5.114C235.485,3.71,235.874.411,236.761,1.483Z" transform="translate(4906.387 940.08)" fill="#454040"/>
    </g>
    <path id="União_1" data-name="União 1" d="M5.1,14.171a1.173,1.173,0,0,1-.428-1.6L9.381,4.414h0L11.589.587a1.173,1.173,0,0,1,2.046,1.146l-.015.026L9.381,9.1h0L6.7,13.742a1.172,1.172,0,0,1-1.6.429Zm8.384-.873a3.508,3.508,0,1,1,1.753.473A3.522,3.522,0,0,1,13.485,13.3Zm.743-3.632a1.172,1.172,0,1,0,1.018-.587A1.173,1.173,0,0,0,14.228,9.666ZM1.758,7.2a3.5,3.5,0,1,1,1.753.473A3.522,3.522,0,0,1,1.758,7.2Zm1.456-4.18a1.164,1.164,0,1,0,.305-.04A1.18,1.18,0,0,0,3.214,3.021Z" transform="translate(5169.691 956.091)" fill="#2e2e2e"/>
  </g>
</svg>
