<svg xmlns="http://www.w3.org/2000/svg" width="31.348" height="40.023" viewBox="0 0 31.348 40.023">
  <g id="Grupo_94" data-name="Grupo 94" transform="translate(-172 -374)">
    <g id="Grupo_93" data-name="Grupo 93" transform="translate(88)">
      <g id="Grupo_89" data-name="Grupo 89" transform="translate(-4280 415)">
        <g id="etiqueta-de-preco" transform="translate(4308.514 -41)">
          <g id="Grupo_86" data-name="Grupo 86" transform="translate(55.486 3.127)">
            <path id="Caminho_39" data-name="Caminho 39" d="M82.456,76.9h-25.8a1.173,1.173,0,0,1-1.173-1.173V50.554a1.173,1.173,0,0,1,.483-.948l12.9-9.381a1.173,1.173,0,0,1,1.379,0l12.9,9.381a1.173,1.173,0,0,1,.483.948v25.17A1.173,1.173,0,0,1,82.456,76.9Z" transform="translate(-55.486 -40)" fill="#ff7d68"/>
          </g>
          <path id="Caminho_40" data-name="Caminho 40" d="M249.075,49.606l-12.9-9.381a1.171,1.171,0,0,0-.69-.224V76.9h12.9a1.173,1.173,0,0,0,1.173-1.173V50.554a1.173,1.173,0,0,0-.483-.948Z" transform="translate(-165.929 -36.874)" fill="#ff2e2e"/>
          <path id="Caminho_44" data-name="Caminho 44" d="M235.673,0h-9.85a4.462,4.462,0,0,0-4.381,3.648l.408-.3a1.173,1.173,0,0,1,1.379,0l.594.432a2.114,2.114,0,0,1,2-1.438h9.85a1.8,1.8,0,0,1,0,3.6s-8.818,0-8.868.011l3.21,2.335h5.658a4.143,4.143,0,0,0,0-8.287Z" transform="translate(-152.982)" fill="#2e2e2e"/>
          <path id="Caminho_51" data-name="Caminho 51" d="M238.768,0a4.445,4.445,0,0,0-3.283,1.447v9.106a1.173,1.173,0,0,0,1.173-1.173V4.456a2.113,2.113,0,0,1,2.111-2.111h1.055V0Z" transform="translate(-165.928)" fill="#2e2e2e"/>
        </g>
      </g>
      <g id="Elipse_8" data-name="Elipse 8" transform="translate(96 382)" fill="#2e2e2e" stroke="#2e2e2e" stroke-width="1">
        <ellipse cx="2" cy="1.5" rx="2" ry="1.5" stroke="none"/>
        <ellipse cx="2" cy="1.5" rx="1.5" ry="1" fill="none"/>
      </g>
      <path id="Caminho_55" data-name="Caminho 55" d="M181.911,244.367a1.172,1.172,0,0,0-1.6.429l-6.918,11.983a1.173,1.173,0,1,0,2.031,1.173l6.918-11.983A1.173,1.173,0,0,0,181.911,244.367Z" transform="translate(-80.029 148.881)" fill="#454040"/>
      <path id="Caminho_56" data-name="Caminho 56" d="M122.054,257.611a3.514,3.514,0,1,0-3.052,1.76,3.54,3.54,0,0,0,.916-.121A3.5,3.5,0,0,0,122.054,257.611Zm-2.031-1.173a1.173,1.173,0,1,1-1.319-1.719,1.181,1.181,0,0,1,.305-.04,1.173,1.173,0,0,1,1.014,1.76Z" transform="translate(-26.799 141.393)" fill="#454040"/>
      <path id="Caminho_57" data-name="Caminho 57" d="M270.775,330.831a3.518,3.518,0,1,0,1.288,4.805A3.522,3.522,0,0,0,270.775,330.831Zm-.743,3.633a1.172,1.172,0,1,1-.429-1.6A1.165,1.165,0,0,1,270.032,334.464Z" transform="translate(-165.082 69.465)" fill="#2e2e2e"/>
      <g id="Grupo_92" data-name="Grupo 92" transform="translate(98.071 374)">
        <path id="Caminho_46" data-name="Caminho 46" d="M239.3,244.367a1.172,1.172,0,0,0-1.6.429l-2.209,3.826v4.69l4.24-7.344A1.173,1.173,0,0,0,239.3,244.367Z" transform="translate(-235.486 -225.119)" fill="#2e2e2e"/>
      </g>
      <path id="Caminho_59" data-name="Caminho 59" d="M226,0h-1.055a4.461,4.461,0,0,0-4.456,4.456V9.381a1.173,1.173,0,1,0,2.345,0V4.456a2.113,2.113,0,0,1,2.111-2.111H226Z" transform="translate(-123.587 374)" fill="#454040"/>
    </g>
    <path id="Caminho_60" data-name="Caminho 60" d="M238.768,0a4.445,4.445,0,0,0-3.283,1.447v9.106a1.173,1.173,0,0,0,1.173-1.173V4.456a2.113,2.113,0,0,1,2.111-2.111h1.055V0Z" transform="translate(-49.414 374)" fill="#2e2e2e"/>
  </g>
</svg>
