<?xml version="1.0" encoding="utf-8"?>
<!-- Generator: Adobe Illustrator 16.0.0, SVG Export Plug-In . SVG Version: 6.00 Build 0)  -->
<!DOCTYPE svg PUBLIC "-//W3C//DTD SVG 1.1//EN" "http://www.w3.org/Graphics/SVG/1.1/DTD/svg11.dtd">
<svg version="1.1" id="Layer_1" xmlns="http://www.w3.org/2000/svg" xmlns:xlink="http://www.w3.org/1999/xlink" x="0px" y="0px"
	 width="250px" height="250px" viewBox="66.575 41.445 250 250" enable-background="new 66.575 41.445 250 250"
	 xml:space="preserve">
<g>
	<path d="M198.74,126.154c6.659-9.047,8.845-19.427,7.647-30.152c-0.717-6.404-5.008-14.707-9.34-19.606
		c-3.367-3.802-10.289-7.205-15.176-8.812c-2.273-0.744-4.626-1.225-7.021-1.454c-16.437-1.594-34.61,8.473-38.792,23.788
		c-3.111,11.383-1.607,22.731,4.416,33.156C153.004,144.748,183.865,146.363,198.74,126.154z M145.516,92.352
		c3.054-11.946,17.617-19.363,30.74-16.422c2.023,0.456,3.978,1.166,6.578,1.938c-4.075,8.856-11.365,12.449-20.27,13.914
		c-0.739,0.122-1.518,0.006-2.264,0.097c-3.238,0.398-5.678,1.912-5.242,5.202c0.42,3.168,2.982,4.458,6.318,4.116
		c11.666-1.194,21.484-5.451,28.023-15.106c0.4-0.597,0.769-1.213,1.662-2.622c1.482,2.432,3.168,4.283,3.813,6.41
		c3.795,12.524,2.547,24.424-7.051,34.345c-9.873,10.2-27.227,9.185-36.184-1.873C144.393,113.401,142.795,102.994,145.516,92.352z"
		/>
	<path d="M230.642,226.439c-2.609,0-4.725-1.998-4.725-4.459c0-2.459,2.115-4.455,4.725-4.455c2.61,0,4.726,1.996,4.726,4.455
		C235.367,224.441,233.252,226.439,230.642,226.439z"/>
	<path d="M264.218,216.992c-3.012-0.066-6.031-0.016-8.857-0.016c-1.301-2.934-2.457-5.543-4.08-9.215
		c1.938-1.531,4.32-3.291,6.551-5.205c2.352-2.027,2.879-4.563,0.59-6.762c-2.412-2.322-5.221-1.971-7.504,0.436
		c-2.01,2.121-3.83,4.404-5.35,6.17c-4.158-1.68-7.02-2.834-9.941-4.018c0-2.762,0.006-5.326-0.004-7.891
		c-0.01-3.283-1.359-5.77-5.17-5.662c-3.527,0.104-4.801,2.434-4.703,5.6c0.077,2.693,0.014,5.398,0.014,8.105
		c-1.67,0.549-3.113,0.947-4.49,1.494c-1.488,0.592-2.918,1.324-4.727,2.158c-2.145-2.111-4.164-4.229-6.336-6.203
		c-2.271-2.063-4.923-2.416-7.275-0.303c-2.457,2.209-2.106,4.992,0.459,6.646c5.927,3.82,6.64,8.33,3.08,13.85
		c-0.143,0.223-0.377,0.396-0.84,0.869c-2.742,0-5.763-0.098-8.771,0.027c-3.05,0.125-5.517,1.494-5.498,4.551
		c0.019,3.174,2.241,4.789,5.707,4.732c3.006-0.051,6.014-0.01,8.803-0.01c1.313,2.998,3.761,5.859,3.246,8.129
		c-0.567,2.514-3.812,4.508-5.938,6.689c-2.162,2.223-2.588,4.611-0.242,6.789c2.365,2.197,5.341,2.006,7.099-0.439
		c4.179-5.824,9.172-6.117,15.092-2.838c0.117,0.063,0.192,0.197,0.634,0.68c0,2.027,0.192,4.455-0.047,6.84
		c-0.312,3.076,0.853,5.252,3.666,6.721c0.907,0,1.817,0,2.725,0c6.156-3.463,2.182-9.455,3.938-14.021
		c8.58-2.947,8.619-2.986,14.947,2.49c2.303,1.994,4.73,2.906,7.176,0.707c2.527-2.277,2.082-4.947-0.264-7.17
		c-2.125-2.016-4.495-3.797-6.518-5.48c1.549-3.463,2.762-6.166,4.075-9.104c2.784,0,5.653-0.031,8.519,0.01
		c3.344,0.041,5.787-1.227,5.871-4.543S267.53,217.063,264.218,216.992z M230.754,235.904c-8.461,0.02-15.026-5.998-15.114-13.855
		c-0.097-8.119,6.474-14.521,14.946-14.559c8.443-0.033,15.218,6.391,15.17,14.395C245.713,229.729,239.125,235.887,230.754,235.904
		z"/>
	<path d="M177.029,235.687c-1.363,0.039-2.729,0.004-4.09,0.004c-14.975,0-29.95,0-45.391,0c3.416-17.658,6.716-34.713,10.014-51.77
		c1.461-7.567,4.945-13.863,11.861-18.439c17.383-11.497,49.239-6.586,55.854,12.066c1.002,2.82,3.813,3.35,6.42,2.273
		c2.668-1.098,3.945-3.456,2.23-5.974c-3.146-4.616-5.895-9.851-10.168-13.34c-12.107-9.881-26.75-12.328-42.118-9.4
		c-16.801,3.202-29.256,11.841-32.906,28.485c-4.215,19.207-7.683,38.561-11.363,57.871c-1.115,5.844,0.475,7.461,6.83,7.479
		c13.173,0.035,26.347,0.014,39.521,0.008c4.543,0,9.088,0.096,13.626-0.061c3.098-0.109,5.392-1.699,5.22-4.762
		C182.405,237.192,180.311,235.599,177.029,235.687z"/>
	<path d="M187.832,181.607c-3.476-0.1-7.049-0.451-10.394,0.178c-3.692,0.693-4.554,4.6-2.118,6.967
		c2.305,2.238,4.532,1.633,7.506,1.633c1.664,0.016,3.332,0.086,4.989-0.004c2.908-0.152,4.39-1.688,4.416-4.41
		C192.261,183.207,190.72,181.689,187.832,181.607z"/>
	<ellipse cx="230.642" cy="221.982" rx="4.725" ry="4.457"/>
</g>
</svg>
